<svg xmlns="http://www.w3.org/2000/svg" width="98.075" height="96.594" viewBox="0 0 98.075 96.594"><defs><style>.a{fill:#edb263;}</style></defs><g transform="translate(-22.314 -12.377)"><rect class="a" width="27.981" height="64.164" transform="translate(22.314 44.807)"/><path class="a" d="M111.945,47.7c-10.545-.965-23.524-.965-23.524-.965A36.458,36.458,0,0,0,90.043,23.1c-3.65-12.543-16.224-10.613-16.224-10.613l-.564,13.085a17.943,17.943,0,0,1-3.772,10.254L57.6,51.079l-1.174,56.289s47.007,2.568,55.119.156,11.762-13.991,2.434-18.815c8.112-1.93,8.923-15.921-.406-18.815C123.3,67.964,122.491,48.666,111.945,47.7Z"/></g></svg>